<svg width="323" height="298" viewBox="0 0 323 298" fill="none" xmlns="http://www.w3.org/2000/svg">
<mask id="mask0_2707_10912" style="mask-type:alpha" maskUnits="userSpaceOnUse" x="0" y="0" width="323" height="298">
<rect width="323" height="298" fill="#D9D9D9"/>
</mask>
<g mask="url(#mask0_2707_10912)">
<mask id="mask1_2707_10912" style="mask-type:alpha" maskUnits="userSpaceOnUse" x="-280" y="-24" width="894" height="607">
<rect x="-280" y="-24" width="894" height="607" fill="#D9D9D9"/>
</mask>
<g mask="url(#mask1_2707_10912)">
<mask id="mask2_2707_10912" style="mask-type:luminance" maskUnits="userSpaceOnUse" x="-2578" y="-913" width="4596" height="2251">
<path d="M-2578 -913H2017.53V1337.97H-2578V-913Z" fill="white"/>
</mask>
<g mask="url(#mask2_2707_10912)">
<mask id="mask3_2707_10912" style="mask-type:luminance" maskUnits="userSpaceOnUse" x="-2578" y="-790" width="4596" height="2128">
<path d="M-2578 -789.861H2017.53V1337.97H-2578V-789.861Z" fill="white"/>
</mask>
<g mask="url(#mask3_2707_10912)">
<mask id="mask4_2707_10912" style="mask-type:luminance" maskUnits="userSpaceOnUse" x="-1692" y="-790" width="3710" height="2128">
<path d="M-1691.4 -789.861H2017.53V1337.97H-1691.4V-789.861Z" fill="white"/>
</mask>
<g mask="url(#mask4_2707_10912)">
<mask id="mask5_2707_10912" style="mask-type:luminance" maskUnits="userSpaceOnUse" x="-638" y="-315" width="1602" height="1178">
<path d="M-637.336 847.88V-299.77C-637.336 -301.73 -636.961 -303.615 -636.211 -305.425C-635.462 -307.235 -634.394 -308.834 -633.008 -310.219C-631.622 -311.605 -630.024 -312.672 -628.214 -313.422C-626.404 -314.172 -624.519 -314.547 -622.559 -314.547H948.687C950.646 -314.547 952.531 -314.172 954.341 -313.422C956.151 -312.672 957.75 -311.605 959.136 -310.219C960.521 -308.834 961.589 -307.235 962.339 -305.425C963.089 -303.615 963.463 -301.73 963.464 -299.77V847.88C963.463 849.839 963.089 851.724 962.339 853.534C961.589 855.344 960.521 856.943 959.136 858.328C957.75 859.714 956.151 860.781 954.341 861.531C952.53 862.281 950.646 862.656 948.687 862.657H-622.559C-624.519 862.656 -626.404 862.281 -628.214 861.531C-630.024 860.781 -631.622 859.714 -633.008 858.328C-634.394 856.943 -635.462 855.344 -636.211 853.534C-636.961 851.724 -637.336 849.839 -637.336 847.88Z" fill="white"/>
</mask>
<g mask="url(#mask5_2707_10912)">
<mask id="mask6_2707_10912" style="mask-type:luminance" maskUnits="userSpaceOnUse" x="-638" y="-315" width="1602" height="1178">
<path d="M-637.336 847.88V-299.77C-637.336 -301.73 -636.961 -303.615 -636.211 -305.425C-635.462 -307.235 -634.394 -308.834 -633.008 -310.219C-631.622 -311.605 -630.024 -312.672 -628.214 -313.422C-626.404 -314.172 -624.519 -314.547 -622.559 -314.547H948.687C950.646 -314.547 952.531 -314.172 954.341 -313.422C956.151 -312.672 957.75 -311.605 959.136 -310.219C960.521 -308.834 961.589 -307.235 962.339 -305.425C963.089 -303.615 963.463 -301.73 963.464 -299.77V847.88C963.463 849.839 963.089 851.724 962.339 853.534C961.589 855.344 960.521 856.943 959.136 858.328C957.75 859.714 956.151 860.781 954.341 861.531C952.53 862.281 950.646 862.656 948.687 862.657H-622.559C-624.519 862.656 -626.404 862.281 -628.214 861.531C-630.024 860.781 -631.622 859.714 -633.008 858.328C-634.394 856.943 -635.462 855.344 -636.211 853.534C-636.961 851.724 -637.336 849.839 -637.336 847.88Z" fill="white"/>
</mask>
<g mask="url(#mask6_2707_10912)">
<mask id="mask7_2707_10912" style="mask-type:luminance" maskUnits="userSpaceOnUse" x="-638" y="-315" width="1602" height="1178">
<path d="M-637.336 -314.547H963.463V862.657H-637.336V-314.547Z" fill="white"/>
</mask>
<g mask="url(#mask7_2707_10912)">
<mask id="mask8_2707_10912" style="mask-type:luminance" maskUnits="userSpaceOnUse" x="21" y="8" width="284" height="283">
<path d="M21.8164 8.14062H304.308V290.632H21.8164V8.14062Z" fill="white"/>
</mask>
<g mask="url(#mask8_2707_10912)">
<path d="M229.796 192.694C231.217 191.266 232.474 189.709 233.57 188.02C234.664 186.33 235.574 184.545 236.296 182.666C237.02 180.786 237.543 178.852 237.862 176.866C238.182 174.877 238.292 172.878 238.197 170.866C238.099 168.854 237.797 166.876 237.286 164.927C236.776 162.981 236.072 161.105 235.169 159.304C234.269 157.504 233.193 155.814 231.941 154.238C230.686 152.661 229.285 151.233 227.734 149.948C226.316 148.822 224.807 147.834 223.208 146.986C221.609 146.136 219.947 145.442 218.219 144.899C216.492 144.359 214.729 143.979 212.931 143.763C211.133 143.544 209.331 143.494 207.523 143.609C205.717 143.725 203.935 144.004 202.179 144.447C200.424 144.892 198.725 145.49 197.08 146.247C195.436 147.004 193.874 147.904 192.396 148.95C190.915 149.993 189.544 151.165 188.282 152.463L177.118 163.627L165.35 175.294C163.758 176.938 162.089 178.5 160.341 179.978C158.594 181.457 156.778 182.845 154.892 184.142C153.009 185.44 151.063 186.642 149.059 187.748C147.055 188.852 145.001 189.855 142.898 190.758C140.794 191.658 138.652 192.453 136.469 193.142C134.284 193.831 132.074 194.409 129.833 194.879C127.593 195.347 125.335 195.704 123.059 195.948C120.784 196.194 118.503 196.325 116.215 196.343C113.924 196.363 111.641 196.267 109.363 196.058C107.082 195.85 104.819 195.53 102.571 195.098C100.326 194.663 98.1033 194.12 95.9107 193.466C93.718 192.815 91.5606 192.053 89.4434 191.185C87.3263 190.318 85.2569 189.35 83.2352 188.276C81.2136 187.202 79.2498 186.033 77.3438 184.766C75.4379 183.499 73.5998 182.138 71.8296 180.688C70.0594 179.239 68.3647 177.703 66.7454 176.086C65.1286 174.467 63.5922 172.772 62.1439 171.002C60.693 169.232 59.3327 167.394 58.0654 165.488C56.7981 163.582 55.6289 161.618 54.5552 159.596C53.4816 157.575 52.5135 155.505 51.646 153.388C50.7785 151.271 50.0166 149.113 49.3654 146.921C48.7116 144.728 48.1685 142.505 47.7335 140.26C47.301 138.012 46.9817 135.749 46.773 133.468C46.5643 131.19 46.4687 128.907 46.4888 126.616C46.5064 124.328 46.6372 122.048 46.8836 119.772C47.1275 117.496 47.4846 115.238 47.9523 112.998C48.4225 110.758 49.0008 108.547 49.6898 106.362C50.3787 104.18 51.1733 102.038 52.0735 99.9329C52.9762 97.8309 53.9794 95.7765 55.0833 93.7725C56.1896 91.7685 57.3915 89.8223 58.689 87.9389C59.9865 86.0531 61.3745 84.2376 62.853 82.4901C64.3315 80.7425 65.893 79.0729 67.5374 77.4813L79.28 65.7136C81.6436 63.355 83.6149 60.7023 85.1915 57.7603C86.7681 54.8159 87.8845 51.7055 88.5382 48.4291C89.192 45.1553 89.3554 41.8563 89.0286 38.5322C88.7017 35.2081 87.9021 32.0021 86.6222 28.9169C85.3449 25.8316 83.6476 22.9978 81.5279 20.4155C79.4082 17.8356 76.9616 15.6179 74.1832 13.7622C71.4047 11.909 68.42 10.4959 65.2216 9.53036C62.0257 8.56229 58.7569 8.07953 55.4177 8.08204C53.1999 8.08204 51.0048 8.29827 48.8298 8.73076C46.6548 9.16325 44.5426 9.80444 42.4959 10.6518C40.4466 11.5017 38.5004 12.5402 36.6573 13.7723C34.8117 15.0044 33.1069 16.4049 31.5403 17.9739C29.9713 19.5405 28.5708 21.2453 27.3387 23.0909C26.1066 24.934 25.0681 26.8802 24.2182 28.9295C23.3708 30.9762 22.7296 33.0884 22.2972 35.2634C21.8647 37.4384 21.6484 39.6335 21.6484 41.8513V256.788C21.6484 259.006 21.8647 261.201 22.2972 263.376C22.7296 265.551 23.3708 267.663 24.2182 269.71C25.0681 271.759 26.1066 273.705 27.3387 275.548C28.5708 277.394 29.9713 279.099 31.5403 280.665C33.1069 282.234 34.8117 283.635 36.6573 284.867C38.5004 286.099 40.4466 287.137 42.4959 287.987C44.5426 288.835 46.6548 289.476 48.8298 289.908C51.0048 290.341 53.1999 290.557 55.4177 290.557H117.952C122.431 290.56 126.741 289.705 130.879 287.992C135.018 286.28 138.672 283.841 141.84 280.675L229.796 192.694Z" fill="#F1511B"/>
</g>
</g>
</g>
</g>
</g>
</g>
</g>
<mask id="mask9_2707_10912" style="mask-type:luminance" maskUnits="userSpaceOnUse" x="-2578" y="-913" width="4596" height="2251">
<path d="M-2578 -913H2017.53V1337.97H-2578V-913Z" fill="white"/>
</mask>
<g mask="url(#mask9_2707_10912)">
<mask id="mask10_2707_10912" style="mask-type:luminance" maskUnits="userSpaceOnUse" x="-2578" y="-790" width="4596" height="2128">
<path d="M-2578 -789.861H2017.53V1337.97H-2578V-789.861Z" fill="white"/>
</mask>
<g mask="url(#mask10_2707_10912)">
<mask id="mask11_2707_10912" style="mask-type:luminance" maskUnits="userSpaceOnUse" x="-1692" y="-790" width="3710" height="2128">
<path d="M-1691.4 -789.861H2017.53V1337.97H-1691.4V-789.861Z" fill="white"/>
</mask>
<g mask="url(#mask11_2707_10912)">
<mask id="mask12_2707_10912" style="mask-type:luminance" maskUnits="userSpaceOnUse" x="-638" y="-315" width="1602" height="1178">
<path d="M-637.336 847.88V-299.77C-637.336 -301.73 -636.961 -303.615 -636.211 -305.425C-635.462 -307.235 -634.394 -308.834 -633.008 -310.219C-631.622 -311.605 -630.024 -312.672 -628.214 -313.422C-626.404 -314.172 -624.519 -314.547 -622.559 -314.547H948.687C950.646 -314.547 952.531 -314.172 954.341 -313.422C956.151 -312.672 957.75 -311.605 959.136 -310.219C960.521 -308.834 961.589 -307.235 962.339 -305.425C963.089 -303.615 963.463 -301.73 963.464 -299.77V847.88C963.463 849.839 963.089 851.724 962.339 853.534C961.589 855.344 960.521 856.943 959.136 858.328C957.75 859.714 956.151 860.781 954.341 861.531C952.53 862.281 950.646 862.656 948.687 862.657H-622.559C-624.519 862.656 -626.404 862.281 -628.214 861.531C-630.024 860.781 -631.622 859.714 -633.008 858.328C-634.394 856.943 -635.462 855.344 -636.211 853.534C-636.961 851.724 -637.336 849.839 -637.336 847.88Z" fill="white"/>
</mask>
<g mask="url(#mask12_2707_10912)">
<mask id="mask13_2707_10912" style="mask-type:luminance" maskUnits="userSpaceOnUse" x="-638" y="-315" width="1602" height="1178">
<path d="M-637.336 847.88V-299.77C-637.336 -301.73 -636.961 -303.615 -636.211 -305.425C-635.462 -307.235 -634.394 -308.834 -633.008 -310.219C-631.622 -311.605 -630.024 -312.672 -628.214 -313.422C-626.404 -314.172 -624.519 -314.547 -622.559 -314.547H948.687C950.646 -314.547 952.531 -314.172 954.341 -313.422C956.151 -312.672 957.75 -311.605 959.136 -310.219C960.521 -308.834 961.589 -307.235 962.339 -305.425C963.089 -303.615 963.463 -301.73 963.464 -299.77V847.88C963.463 849.839 963.089 851.724 962.339 853.534C961.589 855.344 960.521 856.943 959.136 858.328C957.75 859.714 956.151 860.781 954.341 861.531C952.53 862.281 950.646 862.656 948.687 862.657H-622.559C-624.519 862.656 -626.404 862.281 -628.214 861.531C-630.024 860.781 -631.622 859.714 -633.008 858.328C-634.394 856.943 -635.462 855.344 -636.211 853.534C-636.961 851.724 -637.336 849.839 -637.336 847.88Z" fill="white"/>
</mask>
<g mask="url(#mask13_2707_10912)">
<mask id="mask14_2707_10912" style="mask-type:luminance" maskUnits="userSpaceOnUse" x="-638" y="-315" width="1602" height="1178">
<path d="M-637.336 -314.547H963.463V862.657H-637.336V-314.547Z" fill="white"/>
</mask>
<g mask="url(#mask14_2707_10912)">
<mask id="mask15_2707_10912" style="mask-type:luminance" maskUnits="userSpaceOnUse" x="21" y="8" width="284" height="283">
<path d="M21.8164 8.14062H304.308V290.632H21.8164V8.14062Z" fill="white"/>
</mask>
<g mask="url(#mask15_2707_10912)">
<path d="M207.723 8.08204C203.245 8.07952 198.935 8.93444 194.796 10.6468C190.658 12.3591 187.004 14.7982 183.836 17.9639L95.8295 105.97C94.4868 107.32 93.2899 108.786 92.2389 110.37C91.1853 111.955 90.2977 113.629 89.5736 115.387C88.8519 117.147 88.3063 118.96 87.9391 120.828C87.5746 122.694 87.3935 124.58 87.3985 126.481C87.4036 128.384 87.5947 130.267 87.9693 132.133C88.3465 133.999 88.8997 135.809 89.6339 137.564C90.3656 139.32 91.2608 140.987 92.3219 142.568C93.383 144.147 94.5874 145.606 95.9377 146.948C97.2854 148.291 98.7514 149.488 100.335 150.542C101.922 151.595 103.594 152.483 105.352 153.207C107.112 153.931 108.925 154.477 110.793 154.844C112.659 155.211 114.542 155.392 116.446 155.387C118.349 155.382 120.232 155.193 122.098 154.819C123.961 154.442 125.774 153.888 127.529 153.157C129.285 152.425 130.954 151.53 132.533 150.469C134.112 149.408 135.573 148.203 136.916 146.855L148.658 135.088L159.395 124.376C185.998 97.7479 229.348 96.0883 256.755 121.887C258.435 123.471 260.032 125.135 261.543 126.878C263.057 128.62 264.477 130.436 265.81 132.322C267.14 134.208 268.375 136.156 269.511 138.165C270.648 140.174 271.681 142.234 272.612 144.348C273.542 146.461 274.364 148.613 275.078 150.808C275.792 153.003 276.396 155.229 276.889 157.484C277.381 159.74 277.759 162.013 278.023 164.306C278.289 166.599 278.438 168.9 278.473 171.208C278.508 173.516 278.428 175.822 278.231 178.12C278.035 180.421 277.723 182.707 277.299 184.975C276.876 187.243 276.338 189.486 275.689 191.701C275.041 193.916 274.284 196.094 273.416 198.233C272.549 200.373 271.578 202.463 270.502 204.507C269.426 206.549 268.251 208.533 266.977 210.456C265.702 212.382 264.336 214.238 262.876 216.026C261.415 217.814 259.871 219.523 258.239 221.158L246.496 232.926C244.133 235.284 242.161 237.937 240.585 240.879C239.008 243.823 237.892 246.934 237.238 250.21C236.584 253.484 236.421 256.783 236.748 260.107C237.075 263.431 237.874 266.637 239.154 269.722C240.431 272.807 242.129 275.641 244.248 278.224C246.368 280.803 248.815 283.021 251.593 284.877C254.372 286.73 257.356 288.143 260.555 289.109C263.751 290.077 267.019 290.56 270.359 290.557C272.576 290.557 274.771 290.341 276.946 289.908C279.121 289.476 281.234 288.835 283.28 287.987C285.33 287.137 287.276 286.099 289.119 284.867C290.965 283.635 292.669 282.234 294.236 280.665C295.805 279.099 297.206 277.394 298.438 275.548C299.67 273.705 300.708 271.759 301.558 269.71C302.405 267.663 303.047 265.551 303.479 263.376C303.912 261.201 304.128 259.006 304.128 256.788V41.8513C304.128 39.6335 303.912 37.4384 303.479 35.2634C303.047 33.0884 302.405 30.9762 301.558 28.9295C300.708 26.8802 299.67 24.934 298.438 23.0909C297.206 21.2453 295.805 19.5405 294.236 17.9739C292.669 16.4049 290.965 15.0044 289.119 13.7723C287.276 12.5402 285.33 11.5017 283.28 10.6518C281.234 9.80445 279.121 9.16326 276.946 8.73077C274.771 8.29828 272.576 8.08204 270.359 8.08204H207.723Z" fill="#FBBC09"/>
</g>
</g>
</g>
</g>
</g>
</g>
</g>
</g>
</g>
</svg>
